<mxfile host="app.diagrams.net" modified="2021-04-03T16:55:29.155Z" agent="5.0 (Macintosh; Intel Mac OS X 10_15_6) AppleWebKit/605.1.15 (KHTML, like Gecko) Version/14.0.3 Safari/605.1.15" etag="CwcUD6SPmSySJKC29Laq" version="14.5.6" type="github">
  <diagram id="U_PIDvn29T9wo9rOR9L2" name="Page-1">
    <mxGraphModel dx="2066" dy="1185" grid="1" gridSize="10" guides="1" tooltips="1" connect="1" arrows="1" fold="1" page="1" pageScale="1" pageWidth="1169" pageHeight="1654" math="0" shadow="0">
      <root>
        <mxCell id="0" />
        <mxCell id="1" parent="0" />
        <mxCell id="jTnP1hHiPZCDrmzqQvNp-1" value="Vyhledání&amp;nbsp;&lt;br&gt;endpointů" style="rounded=0;whiteSpace=wrap;html=1;" parent="1" vertex="1">
          <mxGeometry x="80" y="200" width="80" height="80" as="geometry" />
        </mxCell>
        <mxCell id="jTnP1hHiPZCDrmzqQvNp-2" value="Nastavení&lt;br&gt;parametrů&lt;br&gt;spojení" style="rounded=0;whiteSpace=wrap;html=1;" parent="1" vertex="1">
          <mxGeometry x="240" y="200" width="80" height="80" as="geometry" />
        </mxCell>
        <mxCell id="jTnP1hHiPZCDrmzqQvNp-3" value="Přiřazení&lt;br&gt;reakcí&lt;br&gt;na&lt;br&gt;aktivitu&lt;br&gt;relace" style="rounded=0;whiteSpace=wrap;html=1;" parent="1" vertex="1">
          <mxGeometry x="400" y="200" width="80" height="80" as="geometry" />
        </mxCell>
        <mxCell id="jTnP1hHiPZCDrmzqQvNp-5" value="Registrace&lt;br&gt;vlastních&lt;br&gt;kodeků" style="rounded=0;whiteSpace=wrap;html=1;" parent="1" vertex="1">
          <mxGeometry x="560" y="200" width="80" height="80" as="geometry" />
        </mxCell>
        <mxCell id="jTnP1hHiPZCDrmzqQvNp-6" value="Pokus o připojení" style="rounded=0;whiteSpace=wrap;html=1;" parent="1" vertex="1">
          <mxGeometry x="720" y="200" width="80" height="80" as="geometry" />
        </mxCell>
        <mxCell id="jTnP1hHiPZCDrmzqQvNp-7" value="Přihlášení&lt;br&gt;k&lt;br&gt;odběru&lt;br&gt;potřebných&lt;br&gt;informací" style="rounded=0;whiteSpace=wrap;html=1;" parent="1" vertex="1">
          <mxGeometry x="880" y="200" width="80" height="80" as="geometry" />
        </mxCell>
        <mxCell id="jTnP1hHiPZCDrmzqQvNp-8" value="" style="endArrow=classic;html=1;" parent="1" edge="1">
          <mxGeometry width="50" height="50" relative="1" as="geometry">
            <mxPoint x="160" y="239.5" as="sourcePoint" />
            <mxPoint x="240" y="239.5" as="targetPoint" />
          </mxGeometry>
        </mxCell>
        <mxCell id="jTnP1hHiPZCDrmzqQvNp-9" value="" style="endArrow=classic;html=1;" parent="1" edge="1">
          <mxGeometry width="50" height="50" relative="1" as="geometry">
            <mxPoint x="320" y="239.5" as="sourcePoint" />
            <mxPoint x="400" y="239.5" as="targetPoint" />
          </mxGeometry>
        </mxCell>
        <mxCell id="jTnP1hHiPZCDrmzqQvNp-11" value="" style="endArrow=classic;html=1;" parent="1" edge="1">
          <mxGeometry width="50" height="50" relative="1" as="geometry">
            <mxPoint x="480" y="239.5" as="sourcePoint" />
            <mxPoint x="560" y="239.5" as="targetPoint" />
          </mxGeometry>
        </mxCell>
        <mxCell id="jTnP1hHiPZCDrmzqQvNp-12" value="" style="endArrow=classic;html=1;" parent="1" edge="1">
          <mxGeometry width="50" height="50" relative="1" as="geometry">
            <mxPoint x="640" y="239.5" as="sourcePoint" />
            <mxPoint x="720" y="239.5" as="targetPoint" />
          </mxGeometry>
        </mxCell>
        <mxCell id="jTnP1hHiPZCDrmzqQvNp-13" value="" style="endArrow=classic;html=1;" parent="1" edge="1">
          <mxGeometry width="50" height="50" relative="1" as="geometry">
            <mxPoint x="800" y="239.5" as="sourcePoint" />
            <mxPoint x="880" y="239.5" as="targetPoint" />
          </mxGeometry>
        </mxCell>
        <mxCell id="jTnP1hHiPZCDrmzqQvNp-14" value="" style="endArrow=classic;html=1;exitX=0.5;exitY=0;exitDx=0;exitDy=0;entryX=0.5;entryY=0;entryDx=0;entryDy=0;" parent="1" source="jTnP1hHiPZCDrmzqQvNp-6" target="jTnP1hHiPZCDrmzqQvNp-1" edge="1">
          <mxGeometry width="50" height="50" relative="1" as="geometry">
            <mxPoint x="560" y="630" as="sourcePoint" />
            <mxPoint x="610" y="580" as="targetPoint" />
            <Array as="points">
              <mxPoint x="760" y="120" />
              <mxPoint x="120" y="120" />
            </Array>
          </mxGeometry>
        </mxCell>
        <mxCell id="jTnP1hHiPZCDrmzqQvNp-15" value="čekání 2 s" style="edgeLabel;html=1;align=center;verticalAlign=middle;resizable=0;points=[];" parent="jTnP1hHiPZCDrmzqQvNp-14" vertex="1" connectable="0">
          <mxGeometry x="-0.0167" relative="1" as="geometry">
            <mxPoint as="offset" />
          </mxGeometry>
        </mxCell>
        <mxCell id="jTnP1hHiPZCDrmzqQvNp-16" value="" style="endArrow=classic;html=1;exitX=0.75;exitY=1;exitDx=0;exitDy=0;entryX=0.25;entryY=1;entryDx=0;entryDy=0;" parent="1" source="jTnP1hHiPZCDrmzqQvNp-1" target="jTnP1hHiPZCDrmzqQvNp-1" edge="1">
          <mxGeometry width="50" height="50" relative="1" as="geometry">
            <mxPoint x="560" y="630" as="sourcePoint" />
            <mxPoint x="100" y="440" as="targetPoint" />
            <Array as="points">
              <mxPoint x="140" y="320" />
              <mxPoint x="100" y="320" />
            </Array>
          </mxGeometry>
        </mxCell>
        <mxCell id="jTnP1hHiPZCDrmzqQvNp-17" value="čekání 2 s" style="edgeLabel;html=1;align=center;verticalAlign=middle;resizable=0;points=[];" parent="jTnP1hHiPZCDrmzqQvNp-16" vertex="1" connectable="0">
          <mxGeometry y="1" relative="1" as="geometry">
            <mxPoint as="offset" />
          </mxGeometry>
        </mxCell>
      </root>
    </mxGraphModel>
  </diagram>
</mxfile>
